<svg width="16" height="22" viewBox="0 0 16 22" fill="none" xmlns="http://www.w3.org/2000/svg">
<path d="M8 0C12.4107 0 16 3.72717 16 8.30958C16 14.8207 8.752 21.5435 8.44355 21.8258C8.31644 21.9422 8.15822 22 8 22C7.84178 22 7.68356 21.9423 7.55644 21.8268C7.248 21.5435 0 14.8207 0 8.30958C0 3.72717 3.58933 0 8 0ZM8 12.8333C10.4507 12.8333 12.4444 10.7773 12.4444 8.25C12.4444 5.72275 10.4507 3.66667 8 3.66667C5.54933 3.66667 3.55555 5.72275 3.55555 8.25C3.55555 10.7773 5.54933 12.8333 8 12.8333Z" fill="#347D98"/>
</svg>
