<svg width="27" height="27" viewBox="0 0 27 27" fill="none" xmlns="http://www.w3.org/2000/svg">
<path d="M27.0001 -0.0078125C27.0001 3.53788 26.3017 7.04885 24.9449 10.3246C23.588 13.6004 21.5992 16.5769 19.092 19.0841C16.5848 21.5913 13.6084 23.5801 10.3326 24.937C7.05678 26.2938 3.54581 26.9922 0.00012207 26.9922V18.007C2.36586 18.007 4.70844 17.541 6.89409 16.6357C9.07975 15.7304 11.0657 14.4034 12.7385 12.7306C14.4114 11.0578 15.7383 9.07181 16.6436 6.88615C17.549 4.70049 18.0149 2.35793 18.0149 -0.0078125H27.0001Z" fill="white"/>
<path d="M27.0001 -0.0078125C27.0001 3.53788 26.3017 7.04885 24.9449 10.3246C23.588 13.6004 21.5992 16.5769 19.092 19.0841C16.5848 21.5913 13.6084 23.5801 10.3326 24.937C7.05678 26.2938 3.54581 26.9922 0.00012207 26.9922V18.007C2.36586 18.007 4.70844 17.541 6.89409 16.6357C9.07975 15.7304 11.0657 14.4034 12.7385 12.7306C14.4114 11.0578 15.7383 9.07181 16.6436 6.88615C17.549 4.70049 18.0149 2.35793 18.0149 -0.0078125H27.0001Z" fill="white"/>
</svg>
