<svg width="9" height="9" viewBox="0 0 9 9" fill="none" xmlns="http://www.w3.org/2000/svg">
<path fill-rule="evenodd" clip-rule="evenodd" d="M8.83525 7.91643C8.77549 7.976 8.70342 8.05219 8.62701 8.13276C8.43633 8.33514 8.19812 8.58672 8.04882 8.68875C7.26329 9.22555 6.21238 8.9687 5.46902 8.65895C4.48839 8.25034 3.42077 7.49719 2.46215 6.5384C1.50264 5.57954 0.749593 4.51152 0.341008 3.5314C0.031647 2.78784 -0.225738 1.73666 0.311126 0.950914C0.413075 0.801499 0.665222 0.563647 0.867326 0.372589C0.948181 0.296405 1.02376 0.224422 1.08353 0.164849C1.18963 0.0592697 1.33322 0 1.48289 0C1.63257 0 1.77616 0.0592697 1.88226 0.164849L3.32761 1.60985C3.43312 1.71595 3.49235 1.85951 3.49235 2.00915C3.49235 2.15879 3.43312 2.30235 3.32761 2.40845L2.93387 2.80141C2.80238 2.93195 2.71655 3.10146 2.68916 3.28472C2.66177 3.46797 2.69428 3.65517 2.78185 3.81846C3.3234 4.84064 4.15946 5.6766 5.18168 6.21802C5.34492 6.30556 5.53208 6.33803 5.71527 6.31059C5.89846 6.28315 6.06788 6.19727 6.19832 6.06573L6.59108 5.67275C6.69718 5.56717 6.84077 5.50791 6.99045 5.50791C7.14012 5.50791 7.28371 5.56717 7.38981 5.67275L8.83525 7.118C8.94077 7.22407 9 7.3676 9 7.51722C9 7.66683 8.94077 7.81036 8.83525 7.91643Z" fill="#347D98"/>
</svg>
